<svg xmlns="http://www.w3.org/2000/svg" xmlns:xlink="http://www.w3.org/1999/xlink" xmlns:inkscape="http://www.inkscape.org/namespaces/inkscape" version="1.1" width="375" height="375" viewBox="0 0 375 375">
<defs>
<clipPath id="clip_0">
<path transform="matrix(.24,0,0,.24,0,0)" d="M0 0H1562.5V1562.5H0Z" clip-rule="evenodd"/>
</clipPath>
<clipPath id="clip_1">
<path transform="matrix(.24,0,0,.24,0,0)" d="M0 0H1562.5V1562.5H0Z" clip-rule="evenodd"/>
</clipPath>
<clipPath id="clip_2">
<path transform="matrix(.24,0,0,.24,0,0)" d="M0 0H1562.5V1562.5H0Z" clip-rule="evenodd"/>
</clipPath>
<clipPath id="clip_3">
<path transform="matrix(.24,0,0,.24,70.08,154.8)" d="M0 0H980V272H0Z" clip-rule="evenodd"/>
</clipPath>
<clipPath id="clip_4">
<path transform="matrix(.24,0,0,.24,70.08,154.8)" d="M897.2921 165.5653H937.72799V217.7108H897.2921Z" clip-rule="evenodd"/>
</clipPath>
<clipPath id="clip_5">
<path transform="matrix(.24,0,0,.24,285.36,194.4)" d="M0 0H41V53H0Z" clip-rule="evenodd"/>
</clipPath>
<clipPath id="clip_6">
<path transform="matrix(.24,0,0,.24,70.08,154.8)" d="M903.27236 169.74079H937.728V217.71085H903.27236Z" clip-rule="evenodd"/>
</clipPath>
<clipPath id="clip_7">
<path transform="matrix(.24,0,0,.24,286.8,195.36)" d="M0 0H35V49H0Z" clip-rule="evenodd"/>
</clipPath>
<path id="font_8_3" d="M0 0Z"/>
<path id="font_8_352" d="M.34399415 .11999512C.34399415 .10466512 .34266154 .09133402 .33999635 .08000183H.30000306C.30266825 .06933085 .30400086 .05599467 .30400086 .039993287 .30400086 .02466329 .30266825 .011332194 .30000306 0H.08000183C.07733663 .011332194 .07600403 .02466329 .07600403 .039993287 .07600403 .05599467 .07733663 .06933085 .08000183 .08000183H.2599945C.25732932 .09133402 .2559967 .10466512 .2559967 .11999512 .2559967 .1359965 .25732932 .14933269 .2599945 .16000366H.1000061C.09733073 .17133586 .09599304 .18466695 .09599304 .19999695 .09599304 .21599834 .09733073 .22933452 .1000061 .2400055H.05999756C.057332357 .25133769 .055999757 .2646688 .055999757 .27999879 .055999757 .29600016 .057332357 .30933634 .05999756 .32000733H.1000061C.09733073 .3313395 .09599304 .34467063 .09599304 .3600006 .09599304 .37600199 .09733073 .3893331 .1000061 .3999939H.32000733C.32267253 .3893331 .32400514 .37600199 .32400514 .3600006 .32400514 .34467063 .32267253 .3313395 .32000733 .32000733H.13999939C.1426646 .30933634 .14399719 .29600016 .14399719 .27999879 .14399719 .2646688 .1426646 .25133769 .13999939 .2400055H.30000306C.30266825 .22933452 .30400086 .21599834 .30400086 .19999695 .30400086 .18466695 .30266825 .17133586 .30000306 .16000366H.33999635C.34266154 .14933269 .34399415 .1359965 .34399415 .11999512Z"/>
<path id="font_8_274" d="M.16000366 .47999574C.15733846 .4913279 .15600586 .5046641 .15600586 .5200043 .15600586 .5360057 .15733846 .54933676 .16000366 .55999758H.2400055C.2426707 .54933676 .2440033 .5360057 .2440033 .5200043 .2440033 .5046641 .2426707 .4913279 .2400055 .47999574H.16000366M.32000733 .08000183C.32267253 .06933085 .32400514 .05599467 .32400514 .039993287 .32400514 .02466329 .32267253 .011332194 .32000733 0H.08000183C.07733663 .011332194 .07600403 .02466329 .07600403 .039993287 .07600403 .05599467 .07733663 .06933085 .08000183 .08000183H.16000366C.15733846 .09133402 .15600586 .10466512 .15600586 .11999512 .15600586 .1359965 .15733846 .14933269 .16000366 .16000366 .15733846 .17133586 .15600586 .18466695 .15600586 .19999695 .15600586 .21599834 .15733846 .22933452 .16000366 .2400055 .15733846 .25133769 .15600586 .2646688 .15600586 .27999879 .15600586 .29600016 .15733846 .30933634 .16000366 .32000733H.1000061C.09733073 .3313395 .09599304 .34467063 .09599304 .3600006 .09599304 .37600199 .09733073 .3893331 .1000061 .3999939H.2400055C.2426707 .3893331 .2440033 .37600199 .2440033 .3600006 .2440033 .34467063 .2426707 .3313395 .2400055 .32000733 .2426707 .30933634 .2440033 .29600016 .2440033 .27999879 .2440033 .2646688 .2426707 .25133769 .2400055 .2400055 .2426707 .22933452 .2440033 .21599834 .2440033 .19999695 .2440033 .18466695 .2426707 .17133586 .2400055 .16000366 .2426707 .14933269 .2440033 .1359965 .2440033 .11999512 .2440033 .10466512 .2426707 .09133402 .2400055 .08000183H.32000733Z"/>
<path id="font_8_293" d="M.3600006 .08000183C.3626658 .06933085 .3639984 .05599467 .3639984 .039993287 .3639984 .02466329 .3626658 .011332194 .3600006 0H.22000122C.21733602 .011332194 .21600342 .02466329 .21600342 .039993287 .21600342 .05599467 .21733602 .06933085 .22000122 .08000183H.17999268C.17732747 .09133402 .17599488 .10466512 .17599488 .11999512 .17599488 .1359965 .17732747 .14933269 .17999268 .16000366H.11999512C.12266032 .14933269 .12399292 .1359965 .12399292 .11999512 .12399292 .10466512 .12266032 .09133402 .11999512 .08000183 .12266032 .06933085 .12399292 .05599467 .12399292 .039993287 .12399292 .02466329 .12266032 .011332194 .11999512 0H.039993287C.037328084 .011332194 .035995485 .02466329 .035995485 .039993287 .035995485 .05599467 .037328084 .06933085 .039993287 .08000183 .037328084 .09133402 .035995485 .10466512 .035995485 .11999512 .035995485 .1359965 .037328084 .14933269 .039993287 .16000366 .037328084 .17133586 .035995485 .18466695 .035995485 .19999695 .035995485 .21599834 .037328084 .22933452 .039993287 .2400055 .037328084 .25133769 .035995485 .2646688 .035995485 .27999879 .035995485 .29600016 .037328084 .30933634 .039993287 .32000733 .037328084 .3313395 .035995485 .34467063 .035995485 .3600006 .035995485 .37600199 .037328084 .3893331 .039993287 .3999939 .037328084 .41133628 .035995485 .42467246 .035995485 .44000245 .035995485 .45600382 .037328084 .46933494 .039993287 .47999574 .037328084 .4913279 .035995485 .5046641 .035995485 .5200043 .035995485 .5360057 .037328084 .54933676 .039993287 .55999758H.11999512C.12266032 .54933676 .12399292 .5360057 .12399292 .5200043 .12399292 .5046641 .12266032 .4913279 .11999512 .47999574 .12266032 .46933494 .12399292 .45600382 .12399292 .44000245 .12399292 .42467246 .12266032 .41133628 .11999512 .3999939 .12266032 .3893331 .12399292 .37600199 .12399292 .3600006 .12399292 .34467063 .12266032 .3313395 .11999512 .32000733 .12266032 .30933634 .12399292 .29600016 .12399292 .27999879 .12399292 .2646688 .12266032 .25133769 .11999512 .2400055H.17999268C.17732747 .25133769 .17599488 .2646688 .17599488 .27999879 .17599488 .29600016 .17732747 .30933634 .17999268 .32000733H.22000122C.21733602 .3313395 .21600342 .34467063 .21600342 .3600006 .21600342 .37600199 .21733602 .3893331 .22000122 .3999939H.33999635C.34266154 .3893331 .34399415 .37600199 .34399415 .3600006 .34399415 .34467063 .34266154 .3313395 .33999635 .32000733H.2599945C.2626699 .30933634 .26400758 .29600016 .26400758 .27999879 .26400758 .2646688 .2626699 .25133769 .2599945 .2400055H.22000122C.22266643 .22933452 .22399903 .21599834 .22399903 .19999695 .22399903 .18466695 .22266643 .17133586 .22000122 .16000366H.2599945C.2626699 .14933269 .26400758 .1359965 .26400758 .11999512 .26400758 .10466512 .2626699 .09133402 .2599945 .08000183H.3600006Z"/>
<path id="font_8_243" d="M.3639984 .27999879C.3639984 .2646688 .3626658 .25133769 .3600006 .2400055 .3626658 .22933452 .3639984 .21599834 .3639984 .19999695 .3639984 .18466695 .3626658 .17133586 .3600006 .16000366H.1499939C.15266927 .14933269 .15400696 .1359965 .15400696 .11999512 .15400696 .10466512 .15266927 .09133402 .1499939 .08000183H.32000733C.32267253 .06933085 .32400514 .05599467 .32400514 .039993287 .32400514 .02466329 .32267253 .011332194 .32000733 0H.11999512C.11732992 .011332194 .115997318 .02466329 .115997318 .039993287 .115997318 .05599467 .11732992 .06933085 .11999512 .08000183H.070007327C.06733195 .09133402 .06599426 .10466512 .06599426 .11999512 .06599426 .1359965 .06733195 .14933269 .070007327 .16000366H.039993287C.037328084 .17133586 .035995485 .18466695 .035995485 .19999695 .035995485 .21599834 .037328084 .22933452 .039993287 .2400055H.070007327C.06733195 .25133769 .06599426 .2646688 .06599426 .27999879 .06599426 .29600016 .06733195 .30933634 .070007327 .32000733H.11999512C.11732992 .3313395 .115997318 .34467063 .115997318 .3600006 .115997318 .37600199 .11732992 .3893331 .11999512 .3999939H.32000733C.32267253 .3893331 .32400514 .37600199 .32400514 .3600006 .32400514 .34467063 .32267253 .3313395 .32000733 .32000733H.3600006C.3626658 .30933634 .3639984 .29600016 .3639984 .27999879M.27999879 .2400055C.2773336 .25133769 .27600099 .2646688 .27600099 .27999879 .27600099 .29600016 .2773336 .30933634 .27999879 .32000733H.1499939C.15266927 .30933634 .15400696 .29600016 .15400696 .27999879 .15400696 .2646688 .15266927 .25133769 .1499939 .2400055H.27999879Z"/>
<path id="font_8_238" d="M.3600006 .47999574C.3626658 .46933494 .3639984 .45600382 .3639984 .44000245 .3639984 .42467246 .3626658 .41133628 .3600006 .3999939 .3626658 .3893331 .3639984 .37600199 .3639984 .3600006 .3639984 .34467063 .3626658 .3313395 .3600006 .32000733 .3626658 .30933634 .3639984 .29600016 .3639984 .27999879 .3639984 .2646688 .3626658 .25133769 .3600006 .2400055 .3626658 .22933452 .3639984 .21599834 .3639984 .19999695 .3639984 .18466695 .3626658 .17133586 .3600006 .16000366 .3626658 .14933269 .3639984 .1359965 .3639984 .11999512 .3639984 .10466512 .3626658 .09133402 .3600006 .08000183 .3626658 .06933085 .3639984 .05599467 .3639984 .039993287 .3639984 .02466329 .3626658 .011332194 .3600006 0H.27999879C.2773336 .011332194 .27600099 .02466329 .27600099 .039993287 .27600099 .05599467 .2773336 .06933085 .27999879 .08000183H.25C.2473348 .09133402 .2460022 .10466512 .2460022 .11999512 .2460022 .1359965 .2473348 .14933269 .25 .16000366H.27999879C.2773336 .17133586 .27600099 .18466695 .27600099 .19999695 .27600099 .21599834 .2773336 .22933452 .27999879 .2400055H.25C.2473348 .25133769 .2460022 .2646688 .2460022 .27999879 .2460022 .29600016 .2473348 .30933634 .25 .32000733H.27999879C.2773336 .3313395 .27600099 .34467063 .27600099 .3600006 .27600099 .37600199 .2773336 .3893331 .27999879 .3999939 .2773336 .41133628 .27600099 .42467246 .27600099 .44000245 .27600099 .45600382 .2773336 .46933494 .27999879 .47999574 .2773336 .4913279 .27600099 .5046641 .27600099 .5200043 .27600099 .5360057 .2773336 .54933676 .27999879 .55999758H.3600006C.3626658 .54933676 .3639984 .5360057 .3639984 .5200043 .3639984 .5046641 .3626658 .4913279 .3600006 .47999574M.23399353 .3600006C.23399353 .34467063 .23266094 .3313395 .22999573 .32000733H.13000489C.13267009 .30933634 .13400269 .29600016 .13400269 .27999879 .13400269 .2646688 .13267009 .25133769 .13000489 .2400055H.1000061C.1026713 .22933452 .104003909 .21599834 .104003909 .19999695 .104003909 .18466695 .1026713 .17133586 .1000061 .16000366H.13000489C.13267009 .14933269 .13400269 .1359965 .13400269 .11999512 .13400269 .10466512 .13267009 .09133402 .13000489 .08000183H.22999573C.23266094 .06933085 .23399353 .05599467 .23399353 .039993287 .23399353 .02466329 .23266094 .011332194 .22999573 0H.11999512C.11732992 .011332194 .115997318 .02466329 .115997318 .039993287 .115997318 .05599467 .11732992 .06933085 .11999512 .08000183H.070007327C.06733195 .09133402 .06599426 .10466512 .06599426 .11999512 .06599426 .1359965 .06733195 .14933269 .070007327 .16000366H.039993287C.037328084 .17133586 .035995485 .18466695 .035995485 .19999695 .035995485 .21599834 .037328084 .22933452 .039993287 .2400055H.070007327C.06733195 .25133769 .06599426 .2646688 .06599426 .27999879 .06599426 .29600016 .06733195 .30933634 .070007327 .32000733H.11999512C.11732992 .3313395 .115997318 .34467063 .115997318 .3600006 .115997318 .37600199 .11732992 .3893331 .11999512 .3999939H.22999573C.23266094 .3893331 .23399353 .37600199 .23399353 .3600006Z"/>
<path id="font_8_385" d="M.3639984 .3600006C.3639984 .34467063 .3626658 .3313395 .3600006 .32000733H.33000184C.33266703 .30933634 .33399964 .29600016 .33399964 .27999879 .33399964 .2646688 .33266703 .25133769 .33000184 .2400055H.30000306C.30266825 .22933452 .30400086 .21599834 .30400086 .19999695 .30400086 .18466695 .30266825 .17133586 .30000306 .16000366H.27999879C.28266398 .14933269 .28399659 .1359965 .28399659 .11999512 .28399659 .10466512 .28266398 .09133402 .27999879 .08000183H.2400055C.2426707 .06933085 .2440033 .05599467 .2440033 .039993287 .2440033 .02466329 .2426707 .011332194 .2400055 0H.16000366C.15733846 .011332194 .15600586 .02466329 .15600586 .039993287 .15600586 .05599467 .15733846 .06933085 .16000366 .08000183H.11999512C.11732992 .09133402 .115997318 .10466512 .115997318 .11999512 .115997318 .1359965 .11732992 .14933269 .11999512 .16000366H.1000061C.09733073 .17133586 .09599304 .18466695 .09599304 .19999695 .09599304 .21599834 .09733073 .22933452 .1000061 .2400055H.070007327C.06733195 .25133769 .06599426 .2646688 .06599426 .27999879 .06599426 .29600016 .06733195 .30933634 .070007327 .32000733H.039993287C.037328084 .3313395 .035995485 .34467063 .035995485 .3600006 .035995485 .37600199 .037328084 .3893331 .039993287 .3999939H.11999512C.12266032 .3893331 .12399292 .37600199 .12399292 .3600006 .12399292 .34467063 .12266032 .3313395 .11999512 .32000733H.1499939C.15266927 .30933634 .15400696 .29600016 .15400696 .27999879 .15400696 .2646688 .15266927 .25133769 .1499939 .2400055H.17999268C.18266805 .22933452 .18400574 .21599834 .18400574 .19999695 .18400574 .18466695 .18266805 .17133586 .17999268 .16000366H.22000122C.21733602 .17133586 .21600342 .18466695 .21600342 .19999695 .21600342 .21599834 .21733602 .22933452 .22000122 .2400055H.25C.2473348 .25133769 .2460022 .2646688 .2460022 .27999879 .2460022 .29600016 .2473348 .30933634 .25 .32000733H.27999879C.2773336 .3313395 .27600099 .34467063 .27600099 .3600006 .27600099 .37600199 .2773336 .3893331 .27999879 .3999939H.3600006C.3626658 .3893331 .3639984 .37600199 .3639984 .3600006Z"/>
<path id="font_8_445" d="M.2539978 .11999512C.2539978 .10466512 .2526652 .09133402 .25 .08000183 .2526652 .06933085 .2539978 .05599467 .2539978 .039993287 .2539978 .02466329 .2526652 .011332194 .25 0H.1499939C.14732869 .011332194 .1459961 .02466329 .1459961 .039993287 .1459961 .05599467 .14732869 .06933085 .1499939 .08000183 .14732869 .09133402 .1459961 .10466512 .1459961 .11999512 .1459961 .1359965 .14732869 .14933269 .1499939 .16000366H.25C.2526652 .14933269 .2539978 .1359965 .2539978 .11999512Z"/>
</defs>
<g>
<g clip-path="url(#clip_0)">
<path transform="matrix(.75,0,0,.75,0,0)" d="M0 0H500V500H0Z" fill="#ffffff00"/>
</g>
<g clip-path="url(#clip_1)">
<path transform="matrix(.75,0,0,.75,0,0)" d="M0 0H500V500H0Z" fill="#ffffff00"/>
</g>
<g clip-path="url(#clip_2)">
<g>
<g clip-path="url(#clip_3)">
<g clip-path="url(#clip_4)">
<g>
<g clip-path="url(#clip_5)">
<path transform="matrix(.037908619,0,0,.037908619,285.43009,194.53568)" d="M0 0H256V330H0Z" fill="#7ed957"/>
</g>
</g>
</g>
<g clip-path="url(#clip_6)">
<g>
<g clip-path="url(#clip_7)">
<path transform="matrix(.032302225,0,0,.032302225,286.86537,195.5378)" d="M0 0H256V356H0Z" fill="#00bf63"/>
</g>
</g>
</g>
<use data-text=" " xlink:href="#font_8_3" transform="matrix(65.158588,0,0,-65.158588,70.217159,206.59886)"/>
<use data-text="s" xlink:href="#font_8_352" transform="matrix(65.158588,0,0,-65.158588,96.28133,206.59886)"/>
<use data-text="i" xlink:href="#font_8_274" transform="matrix(65.158588,0,0,-65.158588,122.34288,206.59886)"/>
<use data-text="k" xlink:href="#font_8_293" transform="matrix(65.158588,0,0,-65.158588,148.40444,206.59886)"/>
<use data-text="e" xlink:href="#font_8_243" transform="matrix(65.158588,0,0,-65.158588,174.46599,206.59886)"/>
<use data-text="d" xlink:href="#font_8_238" transform="matrix(65.158588,0,0,-65.158588,200.52754,206.59886)"/>
<use data-text="e" xlink:href="#font_8_243" transform="matrix(65.158588,0,0,-65.158588,226.5891,206.59886)"/>
<use data-text="v" xlink:href="#font_8_385" transform="matrix(65.158588,0,0,-65.158588,252.65065,206.59886)"/>
<use data-text="." xlink:href="#font_8_445" transform="matrix(65.158588,0,0,-65.158588,278.71223,206.59886)"/>
</g>
</g>
</g>
</g>
</svg>
