<?xml version="1.0" encoding="UTF-8"?>
<svg id="Layer_2" data-name="Layer 2" xmlns="http://www.w3.org/2000/svg" xmlns:xlink="http://www.w3.org/1999/xlink" viewBox="0 0 375 70.92">
  <defs>
    <style>
      .cls-1 {
        fill: none;
      }

      .cls-2 {
        fill: #7ed957;
      }

      .cls-3 {
        clip-path: url(#clippath-1);
      }

      .cls-4 {
        clip-path: url(#clippath-3);
      }

      .cls-5 {
        clip-path: url(#clippath-2);
      }

      .cls-6 {
        fill: #fff;
      }

      .cls-7 {
        fill: #00bf63;
      }

      .cls-8 {
        clip-path: url(#clippath);
      }
    </style>
    <clipPath id="clippath">
      <rect class="cls-1" x="356.12" y="46.89" width="18.63" height="24.03"/>
    </clipPath>
    <clipPath id="clippath-1">
      <rect class="cls-1" x="355.99" y="46.63" width="18.89" height="24.42"/>
    </clipPath>
    <clipPath id="clippath-2">
      <rect class="cls-1" x="358.88" y="48.82" width="15.88" height="22.1"/>
    </clipPath>
    <clipPath id="clippath-3">
      <rect class="cls-1" x="358.75" y="48.47" width="16.13" height="22.58"/>
    </clipPath>
  </defs>
  <g id="Layer_1-2" data-name="Layer 1">
    <g>
      <g class="cls-8">
        <g class="cls-3">
          <path class="cls-2" d="M356.12,46.89h18.63v24.02h-18.63v-24.02Z"/>
        </g>
      </g>
      <g class="cls-5">
        <g class="cls-4">
          <path class="cls-7" d="M358.88,48.82h15.88v22.08h-15.88v-22.08Z"/>
        </g>
      </g>
      <path id="font_8_352" data-name="font 8 352" class="cls-6" d="M36.03,55.04c0,1.92-.17,3.59-.5,5h-5c.33,1.33.5,3,.5,5s-.17,3.59-.5,5H3c-.33-1.42-.5-3.09-.5-5s.17-3.67.5-5h22.52c-.33-1.42-.5-3.09-.5-5s.17-3.67.5-5H5.5c-.33-1.42-.5-3.09-.5-5s.17-3.67.5-5H.5c-.33-1.42-.5-3.09-.5-5s.17-3.67.5-5h5c-.33-1.42-.5-3.09-.5-5s.17-3.67.5-5h27.52c.33,1.33.5,3,.5,5s-.17,3.59-.5,5H10.51c.33,1.33.5,3,.5,5s-.17,3.59-.5,5h20.02c.33,1.33.5,3,.5,5s-.17,3.59-.5,5h5c.33,1.33.5,3,.5,5Z"/>
      <path id="font_8_274" data-name="font 8 274" class="cls-6" d="M63.04,10.01c-.33-1.42-.5-3.09-.5-5s.17-3.67.5-5h10.01c.33,1.33.5,3,.5,5s-.17,3.59-.5,5h-10.01M83.06,60.04c.33,1.33.5,3,.5,5s-.17,3.59-.5,5h-30.02c-.33-1.42-.5-3.09-.5-5s.17-3.67.5-5h10.01c-.33-1.42-.5-3.09-.5-5s.17-3.67.5-5c-.33-1.42-.5-3.09-.5-5s.17-3.67.5-5c-.33-1.42-.5-3.09-.5-5s.17-3.67.5-5h-7.51c-.33-1.42-.5-3.09-.5-5s.17-3.67.5-5h17.51c.33,1.33.5,3,.5,5s-.17,3.59-.5,5c.33,1.33.5,3,.5,5s-.17,3.59-.5,5c.33,1.33.5,3,.5,5s-.17,3.59-.5,5c.33,1.33.5,3,.5,5s-.17,3.59-.5,5h10.01Z"/>
      <path id="font_8_293" data-name="font 8 293" class="cls-6" d="M138.09,60.04c.33,1.33.5,3,.5,5s-.17,3.59-.5,5h-17.51c-.33-1.42-.5-3.09-.5-5s.17-3.67.5-5h-5c-.33-1.42-.5-3.09-.5-5s.17-3.67.5-5h-7.51c.33,1.33.5,3,.5,5s-.17,3.59-.5,5c.33,1.33.5,3,.5,5s-.17,3.59-.5,5h-10.01c-.33-1.42-.5-3.09-.5-5s.17-3.67.5-5c-.33-1.42-.5-3.09-.5-5s.17-3.67.5-5c-.33-1.42-.5-3.09-.5-5s.17-3.67.5-5c-.33-1.42-.5-3.09-.5-5s.17-3.67.5-5c-.33-1.42-.5-3.09-.5-5s.17-3.67.5-5c-.33-1.42-.5-3.09-.5-5s.17-3.67.5-5c-.33-1.42-.5-3.09-.5-5s.17-3.67.5-5h10.01c.33,1.33.5,3,.5,5s-.17,3.59-.5,5c.33,1.33.5,3,.5,5s-.17,3.59-.5,5c.33,1.33.5,3,.5,5s-.17,3.59-.5,5c.33,1.33.5,3,.5,5s-.17,3.59-.5,5h7.51c-.33-1.42-.5-3.09-.5-5s.17-3.67.5-5h5c-.33-1.42-.5-3.09-.5-5s.17-3.67.5-5h15.01c.33,1.33.5,3,.5,5s-.17,3.59-.5,5h-10.01c.33,1.33.5,3,.5,5s-.17,3.59-.5,5h-5c.33,1.33.5,3,.5,5s-.17,3.59-.5,5h5c.33,1.33.5,3,.5,5s-.17,3.59-.5,5h12.51Z"/>
      <path id="font_8_243" data-name="font 8 243" class="cls-6" d="M188.63,35.03c0,1.92-.17,3.59-.5,5,.33,1.33.5,3,.5,5s-.17,3.59-.5,5h-26.27c.33,1.33.5,3,.5,5s-.17,3.59-.5,5h21.27c.33,1.33.5,3,.5,5s-.17,3.59-.5,5h-25.02c-.33-1.42-.5-3.09-.5-5s.17-3.67.5-5h-6.25c-.33-1.42-.5-3.09-.5-5s.17-3.67.5-5h-3.75c-.33-1.42-.5-3.09-.5-5s.17-3.67.5-5h3.75c-.33-1.42-.5-3.09-.5-5s.17-3.67.5-5h6.25c-.33-1.42-.5-3.09-.5-5s.17-3.67.5-5h25.02c.33,1.33.5,3,.5,5s-.17,3.59-.5,5h5c.33,1.33.5,3,.5,5M178.12,40.03c-.33-1.42-.5-3.09-.5-5s.17-3.67.5-5h-16.26c.33,1.33.5,3,.5,5s-.17,3.59-.5,5h16.26Z"/>
      <path id="font_8_238" data-name="font 8 238" class="cls-6" d="M238.16,10.01c.33,1.33.5,3,.5,5s-.17,3.59-.5,5c.33,1.33.5,3,.5,5s-.17,3.59-.5,5c.33,1.33.5,3,.5,5s-.17,3.59-.5,5c.33,1.33.5,3,.5,5s-.17,3.59-.5,5c.33,1.33.5,3,.5,5s-.17,3.59-.5,5c.33,1.33.5,3,.5,5s-.17,3.59-.5,5h-10.01c-.33-1.42-.5-3.09-.5-5s.17-3.67.5-5h-3.75c-.33-1.42-.5-3.09-.5-5s.17-3.67.5-5h3.75c-.33-1.42-.5-3.09-.5-5s.17-3.67.5-5h-3.75c-.33-1.42-.5-3.09-.5-5s.17-3.67.5-5h3.75c-.33-1.42-.5-3.09-.5-5s.17-3.67.5-5c-.33-1.42-.5-3.09-.5-5s.17-3.67.5-5c-.33-1.42-.5-3.09-.5-5s.17-3.67.5-5h10.01c.33,1.33.5,3,.5,5s-.17,3.59-.5,5M222.4,25.02c0,1.92-.17,3.59-.5,5h-12.51c.33,1.33.5,3,.5,5s-.17,3.59-.5,5h-3.75c.33,1.33.5,3,.5,5s-.17,3.59-.5,5h3.75c.33,1.33.5,3,.5,5s-.17,3.59-.5,5h12.51c.33,1.33.5,3,.5,5s-.17,3.59-.5,5h-13.76c-.33-1.42-.5-3.09-.5-5s.17-3.67.5-5h-6.25c-.33-1.42-.5-3.09-.5-5s.17-3.67.5-5h-3.75c-.33-1.42-.5-3.09-.5-5s.17-3.67.5-5h3.75c-.33-1.42-.5-3.09-.5-5s.17-3.67.5-5h6.25c-.33-1.42-.5-3.09-.5-5s.17-3.67.5-5h13.76c.33,1.33.5,3,.5,5Z"/>
      <path id="font_8_243-2" data-name="font 8 243" class="cls-6" d="M288.69,35.03c0,1.92-.17,3.59-.5,5,.33,1.33.5,3,.5,5s-.17,3.59-.5,5h-26.27c.33,1.33.5,3,.5,5s-.17,3.59-.5,5h21.27c.33,1.33.5,3,.5,5s-.17,3.59-.5,5h-25.02c-.33-1.42-.5-3.09-.5-5s.17-3.67.5-5h-6.25c-.33-1.42-.5-3.09-.5-5s.17-3.67.5-5h-3.75c-.33-1.42-.5-3.09-.5-5s.17-3.67.5-5h3.75c-.33-1.42-.5-3.09-.5-5s.17-3.67.5-5h6.25c-.33-1.42-.5-3.09-.5-5s.17-3.67.5-5h25.02c.33,1.33.5,3,.5,5s-.17,3.59-.5,5h5c.33,1.33.5,3,.5,5M278.19,40.03c-.33-1.42-.5-3.09-.5-5s.17-3.67.5-5h-16.26c.33,1.33.5,3,.5,5s-.17,3.59-.5,5h16.26Z"/>
      <path id="font_8_385" data-name="font 8 385" class="cls-6" d="M338.73,25.02c0,1.92-.17,3.59-.5,5h-3.75c.33,1.33.5,3,.5,5s-.17,3.59-.5,5h-3.75c.33,1.33.5,3,.5,5s-.17,3.59-.5,5h-2.5c.33,1.33.5,3,.5,5s-.17,3.59-.5,5h-5c.33,1.33.5,3,.5,5s-.17,3.59-.5,5h-10.01c-.33-1.42-.5-3.09-.5-5s.17-3.67.5-5h-5c-.33-1.42-.5-3.09-.5-5s.17-3.67.5-5h-2.5c-.33-1.42-.5-3.09-.5-5s.17-3.67.5-5h-3.75c-.33-1.42-.5-3.09-.5-5s.17-3.67.5-5h-3.75c-.33-1.42-.5-3.09-.5-5s.17-3.67.5-5h10.01c.33,1.33.5,3,.5,5s-.17,3.59-.5,5h3.75c.33,1.33.5,3,.5,5s-.17,3.59-.5,5h3.75c.33,1.33.5,3,.5,5s-.17,3.59-.5,5h5c-.33-1.42-.5-3.09-.5-5s.17-3.67.5-5h3.75c-.33-1.42-.5-3.09-.5-5s.17-3.67.5-5h3.75c-.33-1.42-.5-3.09-.5-5s.17-3.67.5-5h10.01c.33,1.33.5,3,.5,5Z"/>
      <path id="font_8_445" data-name="font 8 445" class="cls-6" d="M375,55.04c0,1.92-.17,3.59-.5,5,.33,1.33.5,3,.5,5s-.17,3.59-.5,5h-12.51c-.33-1.42-.5-3.09-.5-5s.17-3.67.5-5c-.33-1.42-.5-3.09-.5-5s.17-3.67.5-5h12.51c.33,1.33.5,3,.5,5Z"/>
    </g>
  </g>
</svg>